# xmcd
#
# Track frame offsets:
#	187
#	14900
#	27730
#	42060
#	57817
#	69165
#	85497
#	102927
#	119700
#
# Disc length: 1821 seconds
# Revision: 3
# Processed by: cddbd v1.5.2PL0 Copyright (c) Steve Scherf et al.
# Submitted via: dBpowerAMP V12.0
#
DISCID=7c071b09
DTITLE=The Judds - Talk About Love
DYEAR=1993
DGENRE=Country
TTITLE0=Talk About Love
TTITLE1=If I Were You
TTITLE2=Sleeping Heart
TTITLE3=Cow Cow Boogie
TTITLE4=Blue Nun Cafe
TTITLE5=In My Dreams
TTITLE6=The Sweetest Gift
TTITLE7=Dream Chaser
TTITLE8=Old Pictures
EXTD=
EXTT0=
EXTT1=
EXTT2=
EXTT3=
EXTT4=
EXTT5=
EXTT6=
EXTT7=
EXTT8=
PLAYORDER=
